# xmcd
#
# Track frame offsets:
#	150
#	12100
#	23439
#	36827
#	49729
#	60742
#	71549
#	85281
#	98176
#	109984
#	120479
#	131673
#
# Disc length: 1930 seconds
#
# Revision: 1
# Processed by: cddbd v1.5.2PL0 Copyright (c) Steve Scherf et al.
# Submitted via: audiograbber 1.82.02
#
DISCID=9807880c
DTITLE=Teresa Brewer - My Golden Favorites
DYEAR=1993
DGENRE=Country
TTITLE0=Ricochet
TTITLE1=Let Me Go, Lover
TTITLE2=You Send Me
TTITLE3=Empty Arms
TTITLE4=The One Rose
TTITLE5=Heavenly Lover
TTITLE6=Till I Waltz Again With You
TTITLE7=Music - Music - Music;
TTITLE8=A Tear Fell
TTITLE9=Mutual Admiration Society
TTITLE10=Peace Of Mind
TTITLE11=A Sweet Old Fashioned Girl
EXTD=
EXTT0=
EXTT1=
EXTT2=
EXTT3=
EXTT4=
EXTT5=
EXTT6=
EXTT7=
EXTT8=
EXTT9=
EXTT10=
EXTT11=
PLAYORDER=
